<svg width="96" height="54" viewBox="0 0 96 54" fill="none" xmlns="http://www.w3.org/2000/svg">
<g clip-path="url(#clip0)">
<path d="M4.2955 20.2828H0V52.7466H11.5892V49.0118H4.2955V20.2828Z" fill="black"/>
<path d="M18.652 20.2828H14.2988V52.7466H25.9168V49.0118H18.652V20.2828Z" fill="black"/>
<path d="M36.9008 44.8461C36.9008 46.7997 37.218 49.3853 34.4504 49.3853C31.6828 49.3853 31.9423 46.5699 31.9423 44.6163V30.9987H27.9062V44.8461C27.9062 49.7588 28.7135 53.1201 34.6522 53.1201C39.6107 53.1201 40.9657 50.161 40.9657 45.708V30.9987H36.9008V44.8461Z" fill="black"/>
<path d="M61.6935 30.6539C59.4737 30.6539 58.0611 31.8031 57.1962 33.6705H57.0809C56.6485 31.7744 55.1206 30.6539 53.1602 30.6539C51.0845 30.6539 49.6719 31.8318 48.8647 33.6705H48.8071V30.97H44.7422V52.7178H48.7782V38.9279C48.8935 37.0892 48.6629 34.2738 51.2287 34.2738C53.5638 34.2738 53.5638 36.2274 53.5638 37.9511V52.7178H57.6287V38.9279C57.6287 36.9743 57.3116 34.2738 60.1944 34.2738C62.2125 34.2738 62.4143 35.8826 62.4143 37.5202V52.7178H66.4791V35.9113C66.4791 33.0384 65.499 30.6539 61.6935 30.6539Z" fill="black"/>
<path d="M78.8761 33.4119H78.8185C78.2707 32.2628 77.5212 31.3434 76.4257 30.9125C75.9356 30.7401 75.4455 30.6539 74.8977 30.6539C69.795 30.6539 69.6221 37.9511 69.6221 41.571C69.6221 45.0759 69.7374 53.0913 74.7824 53.0913C75.4455 53.0913 75.9356 52.9764 76.4257 52.8327C77.5788 52.3444 78.2131 51.3101 78.8185 49.9598H78.8761V52.7178H82.941V30.97H78.8761V33.4119ZM76.4833 49.5002C76.4257 49.5002 76.4257 49.5002 76.4257 49.5002C73.4275 49.3853 73.7734 43.6682 73.7734 41.887C73.7734 40.1632 73.4563 34.36 76.4257 34.3025C76.4257 34.3025 76.4257 34.3025 76.4833 34.3025C79.1932 34.3025 79.0491 40.1345 79.0491 41.887C79.0491 43.582 79.1932 49.5002 76.4833 49.5002Z" fill="black"/>
<path d="M94.8176 34.6186L95.5095 34.676V30.6827C93.2897 30.6827 91.8194 31.8318 90.8969 33.6992H90.7816V30.9987H86.7744V52.7466H90.8393V39.0716C90.8393 36.2848 91.8194 34.6186 94.8176 34.6186Z" fill="black"/>
<path d="M93.7803 48.2074C92.5407 48.2074 91.5605 49.1842 91.5605 50.3621C91.5605 51.5974 92.5407 52.5742 93.7803 52.5742C94.9912 52.5742 96.0002 51.5974 96.0002 50.3621C96.0002 49.1842 94.9623 48.2074 93.7803 48.2074ZM93.7803 52.172C92.7425 52.172 91.993 51.3676 91.993 50.3908C91.993 49.414 92.7425 48.6096 93.7803 48.6096C94.7605 48.6096 95.5677 49.414 95.5677 50.3908C95.5677 51.3389 94.7605 52.172 93.7803 52.172Z" fill="black"/>
<path d="M94.9048 49.9311C94.9048 49.6726 94.8471 49.4427 94.6453 49.2704C94.4724 49.1555 94.2129 49.1555 93.9823 49.1555H93.7516H92.8291V51.54H93.3192V50.5057H93.7516L94.2994 51.54H94.8471L94.2417 50.5057C94.703 50.5345 94.9048 50.3908 94.9048 49.9311ZM94.0399 50.2184H93.7805H93.348V49.5289H93.7805H93.8958C94.1552 49.5289 94.5012 49.5289 94.5012 49.845C94.4724 50.161 94.2706 50.2184 94.0399 50.2184Z" fill="black"/>
<path d="M61.5495 13.675C53.708 13.675 44.8576 19.3059 43.2432 26.7755H80.317C78.7603 19.2485 69.4774 13.675 61.5495 13.675Z" fill="#E50A0B"/>
<path d="M91.3296 17.5821C91.3296 17.5821 88.2449 17.3523 85.7945 20.1103C83.2864 23.4716 80.8359 23.4141 80.8359 23.4141C81.5855 24.3335 81.8161 25.6263 82.0179 26.7754H94.4143C93.8377 23.4716 92.8576 20.455 91.3296 17.5821Z" fill="#E50A0B"/>
<path d="M85.304 19.191C87.6968 16.433 90.7815 16.6628 90.7815 16.6628C88.0715 12.0087 84.2661 8.13029 79.6824 5.31484V5.25739C79.6824 5.25739 76.4824 6.72257 75.5022 10.2275C74.695 14.3358 72.4463 15.3126 72.4463 15.3126H72.3887C75.704 17.0938 78.5292 19.4783 80.3166 22.4374C80.3454 22.4374 82.7959 22.5523 85.304 19.191Z" fill="#E50A0B"/>
<path d="M62.5585 6.49272C63.9711 10.4286 62.5009 12.4971 62.5009 12.4971H62.4432C65.4414 12.6695 68.4108 13.4164 71.2937 14.8241L71.3513 14.7667C71.3513 14.7667 73.6288 13.7324 74.436 9.68164C75.4162 6.11924 78.5585 4.71152 78.5585 4.71152H78.6738C74.1189 2.06844 68.9873 0.430888 63.6829 0.114868C63.7117 0.114868 61.5784 2.98777 62.5585 6.49272Z" fill="#E50A0B"/>
<path d="M51.1998 15.2551C54.4574 13.4165 57.3979 12.5546 61.2034 12.4971C61.2034 12.4971 62.6736 10.3999 61.3187 6.49277C60.3385 2.93036 62.4142 0 62.4142 0C55.5529 0 51.0556 1.29281 46.443 3.61986C46.443 3.61986 45.9529 7.18226 48.461 9.88279C51.5457 12.6982 51.1998 15.2551 51.1998 15.2551Z" fill="#E50A0B"/>
<path d="M50.0175 15.9447L50.0752 15.8872C50.0752 15.8872 50.3923 13.3591 47.3076 10.5436C44.7995 7.90054 45.2896 4.33813 45.2896 4.33813C39.6968 7.41214 35.6031 11.3768 32.6914 16.0309C32.6914 16.0309 34.277 19.1623 37.8518 20.0242C41.9743 20.685 43.1274 22.9546 43.1274 22.9546C44.6265 20.0242 47.0193 17.7833 50.0175 15.9447Z" fill="#E50A0B"/>
<path d="M32.1152 17.0938C32.1152 17.0938 32.1152 17.1232 32.1448 17.1526C32.1448 17.1232 32.1743 17.1232 32.1743 17.0938H32.1152Z" fill="#E50A0B"/>
<path d="M37.3044 21.0872C33.9891 20.3402 32.3747 17.5248 32.1729 17.1226C29.7513 21.3745 29.2035 23.4717 28.627 26.7468H41.5711C41.8017 25.8275 42.0612 24.9081 42.6089 23.9888C42.5513 24.0175 41.4269 21.7479 37.3044 21.0872Z" fill="#E50A0B"/>
</g>
<defs>
<clipPath id="clip0">
<rect width="96" height="53.12" fill="white"/>
</clipPath>
</defs>
</svg>
